<?xml version="1.0" encoding="UTF-8"?>
<svg id="Layer_1" xmlns="http://www.w3.org/2000/svg" viewBox="0 0 267.48 52.85">
  <defs>
    <style>
      .cls-1 {
        fill: #598be7;
      }
      .cls-2 {
        fill: black;
      }
      @media (prefers-color-scheme: dark) {
        .cls-2 {
          fill: white;
        }
      }
    </style>
  </defs>
  <path class="cls-1" d="M20.74,52.85c-4.08,0-7.68-1-10.8-2.99-3.12-1.99-5.56-4.82-7.31-8.5-1.75-3.67-2.63-8.05-2.63-13.14s.88-9.43,2.63-13.03c1.75-3.6,4.19-6.36,7.31-8.28,3.12-1.92,6.72-2.88,10.8-2.88s7.75.96,10.87,2.88c3.12,1.92,5.56,4.68,7.31,8.28,1.75,3.6,2.63,7.94,2.63,13.03s-.88,9.47-2.63,13.14c-1.75,3.67-4.19,6.5-7.31,8.5-3.12,1.99-6.74,2.99-10.87,2.99ZM20.74,45.58c2.5,0,4.64-.71,6.44-2.12,1.8-1.42,3.2-3.43,4.21-6.05,1.01-2.62,1.51-5.68,1.51-9.18s-.5-6.52-1.51-9.04c-1.01-2.52-2.41-4.46-4.21-5.83s-3.95-2.05-6.44-2.05-4.58.68-6.41,2.05c-1.82,1.37-3.24,3.31-4.25,5.83-1.01,2.52-1.51,5.53-1.51,9.04s.5,6.56,1.51,9.18c1.01,2.62,2.42,4.63,4.25,6.05,1.82,1.42,3.96,2.12,6.41,2.12Z"/>
  <path class="cls-1" d="M70.7,52.85c-4.22,0-8.02-.94-11.38-2.81-3.36-1.87-6-4.62-7.92-8.24-1.92-3.62-2.88-8.03-2.88-13.21,0-3.84.56-7.27,1.69-10.3,1.13-3.02,2.71-5.6,4.75-7.74,2.04-2.14,4.4-3.76,7.09-4.86,2.69-1.1,5.59-1.66,8.71-1.66,3.36,0,6.22.6,8.57,1.8,2.35,1.2,4.25,2.59,5.69,4.18l-4.46,5.11c-1.15-1.15-2.47-2.08-3.96-2.77-1.49-.69-3.34-1.04-5.54-1.04-2.78,0-5.23.68-7.34,2.05-2.11,1.37-3.74,3.32-4.9,5.87-1.15,2.54-1.73,5.59-1.73,9.14s.55,6.62,1.66,9.22c1.1,2.59,2.72,4.57,4.86,5.94,2.14,1.37,4.76,2.05,7.88,2.05,1.34,0,2.62-.18,3.82-.54,1.2-.36,2.18-.88,2.95-1.55v-10.15h-8.93v-6.84h16.42v20.74c-1.58,1.58-3.68,2.92-6.3,4-2.62,1.08-5.53,1.62-8.75,1.62Z"/>
  <path class="cls-2" d="M97.42,51.98V4.46h12.38c3.17,0,5.9.42,8.21,1.26,2.3.84,4.08,2.11,5.33,3.82,1.25,1.7,1.87,3.85,1.87,6.44s-.64,4.67-1.91,6.52c-1.27,1.85-3.13,3.13-5.58,3.85v.29c3.17.48,5.71,1.69,7.63,3.64,1.92,1.94,2.88,4.57,2.88,7.88,0,3.02-.71,5.57-2.12,7.63-1.42,2.06-3.44,3.61-6.08,4.64-2.64,1.03-5.76,1.55-9.36,1.55h-13.25ZM99.72,25.63h8.64c5.18,0,8.9-.85,11.16-2.56,2.26-1.7,3.38-4.02,3.38-6.95,0-3.55-1.2-6.05-3.6-7.49-2.4-1.44-5.9-2.16-10.51-2.16h-9.07v19.15ZM99.72,49.97h10.08c4.99,0,8.93-.94,11.81-2.81,2.88-1.87,4.32-4.82,4.32-8.86,0-3.6-1.4-6.27-4.21-8.03-2.81-1.75-6.78-2.63-11.92-2.63h-10.08v22.32Z"/>
  <path class="cls-2" d="M151.13,52.85c-2.88,0-5.51-.72-7.88-2.16s-4.27-3.5-5.69-6.19c-1.42-2.69-2.12-5.9-2.12-9.65s.71-6.97,2.12-9.68c1.42-2.71,3.25-4.8,5.51-6.26,2.26-1.46,4.66-2.2,7.2-2.2s4.93.61,6.88,1.84c1.94,1.22,3.44,3.01,4.5,5.36,1.06,2.35,1.58,5.23,1.58,8.64v1.08c0,.38-.05.79-.14,1.22h-26.5v-2.02h24.48c0-4.75-.98-8.29-2.95-10.62-1.97-2.33-4.58-3.49-7.85-3.49-2.02,0-3.98.59-5.9,1.76-1.92,1.18-3.5,2.95-4.75,5.33-1.25,2.38-1.87,5.34-1.87,8.89,0,3.26.59,6.11,1.76,8.53,1.18,2.42,2.8,4.3,4.86,5.62,2.06,1.32,4.37,1.98,6.91,1.98,1.97,0,3.74-.26,5.33-.79,1.58-.53,2.98-1.22,4.18-2.09l1.01,1.58c-1.3.86-2.75,1.63-4.36,2.3-1.61.67-3.71,1.01-6.3,1.01Z"/>
  <path class="cls-2" d="M172.87,51.98V17.57h1.87l.29,5.47h.14c1.82-1.82,3.68-3.34,5.58-4.54,1.9-1.2,4.02-1.8,6.37-1.8,3.55,0,6.17,1.07,7.85,3.2,1.68,2.14,2.52,5.44,2.52,9.9v22.18h-2.16v-21.89c0-3.84-.65-6.7-1.94-8.57s-3.43-2.81-6.41-2.81c-2.16,0-4.13.58-5.9,1.73-1.78,1.15-3.79,2.88-6.05,5.18v26.35h-2.16Z"/>
  <path class="cls-2" d="M223.12,52.85c-2.93,0-5.56-.71-7.88-2.12-2.33-1.42-4.17-3.47-5.51-6.16-1.34-2.69-2.02-5.93-2.02-9.72s.72-7.12,2.16-9.83c1.44-2.71,3.32-4.78,5.65-6.19,2.33-1.42,4.86-2.12,7.6-2.12,2.4,0,4.39.41,5.98,1.22,1.58.82,2.95,1.85,4.1,3.1l-1.3,1.3c-1.06-1.1-2.32-1.98-3.78-2.63-1.46-.65-3.13-.97-5-.97-2.45,0-4.66.68-6.62,2.05-1.97,1.37-3.54,3.26-4.72,5.69-1.18,2.42-1.76,5.22-1.76,8.39s.54,5.95,1.62,8.35c1.08,2.4,2.6,4.27,4.57,5.62,1.97,1.34,4.27,2.02,6.91,2.02,1.97,0,3.78-.37,5.44-1.12,1.66-.74,3.06-1.72,4.21-2.92l1.3,1.3c-1.44,1.44-3.06,2.59-4.86,3.46-1.8.86-3.83,1.3-6.08,1.3Z"/>
  <path class="cls-2" d="M242.85,51.98V0h2.16v23.18c1.87-1.87,3.77-3.42,5.69-4.64,1.92-1.22,4.06-1.84,6.41-1.84,3.55,0,6.17,1.07,7.85,3.2,1.68,2.14,2.52,5.44,2.52,9.9v22.18h-2.16v-21.89c0-3.84-.65-6.7-1.94-8.57s-3.43-2.81-6.41-2.81c-2.16,0-4.13.58-5.9,1.73-1.78,1.15-3.79,2.88-6.05,5.18v26.35h-2.16Z"/>
</svg>